<?xml version="1.0" encoding="UTF-8" standalone="no"?>
<!DOCTYPE svg PUBLIC "-//W3C//DTD SVG 1.1//EN" "http://www.w3.org/Graphics/SVG/1.1/DTD/svg11.dtd">
<svg width="100%" height="100%" viewBox="0 0 1150 174" version="1.1" xmlns="http://www.w3.org/2000/svg" xmlns:xlink="http://www.w3.org/1999/xlink" xml:space="preserve" xmlns:serif="http://www.serif.com/" style="fill-rule:evenodd;clip-rule:evenodd;stroke-linejoin:round;stroke-miterlimit:2;">
    <g id="toppng.com-file-svg-airplane-icon-transparent-background-980x980.png">
    </g>
    <g id="Artboard1" transform="matrix(0.590234,0,0,1.725664,41.316357,-2839.008815)">
        <rect x="-70" y="1645.169" width="1947.451" height="100.598" style="fill:none;"/>
        <g transform="matrix(8.982177,0,0,3.072199,-5851.571085,-3261.380317)">
            <path d="M654.584,1629.712C650.218,1629.712 646.618,1628.196 643.784,1625.162L648.334,1621.012C650.234,1623.146 652.268,1624.212 654.434,1624.212C655.601,1624.212 656.493,1623.954 657.109,1623.437C657.726,1622.921 658.034,1622.279 658.034,1621.512C658.034,1621.046 657.926,1620.646 657.709,1620.312C657.493,1619.979 657.043,1619.662 656.359,1619.362C655.676,1619.062 654.651,1618.762 653.284,1618.462C650.951,1617.896 649.218,1617.196 648.084,1616.362C646.951,1615.529 646.201,1614.596 645.834,1613.562C645.468,1612.529 645.284,1611.462 645.284,1610.362C645.284,1608.096 646.143,1606.204 647.859,1604.687C649.576,1603.171 651.951,1602.412 654.984,1602.412C657.084,1602.412 658.884,1602.729 660.384,1603.362C661.884,1603.996 663.301,1605.179 664.634,1606.912L659.734,1610.662C659.101,1609.662 658.393,1608.946 657.609,1608.512C656.826,1608.079 656.001,1607.862 655.134,1607.862C654.201,1607.862 653.426,1608.046 652.809,1608.412C652.193,1608.779 651.884,1609.362 651.884,1610.162C651.884,1610.596 652.084,1611.021 652.484,1611.437C652.884,1611.854 653.851,1612.262 655.384,1612.662C657.918,1613.296 659.851,1614.037 661.184,1614.887C662.518,1615.737 663.434,1616.696 663.934,1617.762C664.434,1618.829 664.684,1620.012 664.684,1621.312C664.684,1622.912 664.243,1624.346 663.359,1625.612C662.476,1626.879 661.276,1627.879 659.759,1628.612C658.243,1629.346 656.518,1629.712 654.584,1629.712Z" style="fill-rule:nonzero;"/>
            <path d="M679.784,1629.712C677.118,1629.712 674.768,1629.096 672.734,1627.862C670.701,1626.629 669.126,1624.987 668.009,1622.937C666.893,1620.887 666.334,1618.612 666.334,1616.112C666.334,1613.612 666.918,1611.321 668.084,1609.237C669.251,1607.154 670.843,1605.496 672.859,1604.262C674.876,1603.029 677.184,1602.412 679.784,1602.412C682.384,1602.412 684.676,1603.029 686.659,1604.262C688.643,1605.496 690.193,1607.154 691.309,1609.237C692.426,1611.321 692.984,1613.612 692.984,1616.112C692.984,1616.479 692.968,1616.862 692.934,1617.262C692.901,1617.662 692.851,1618.079 692.784,1618.512L673.334,1618.512C673.701,1620.046 674.443,1621.296 675.559,1622.262C676.676,1623.229 678.084,1623.712 679.784,1623.712C681.251,1623.712 682.526,1623.379 683.609,1622.712C684.693,1622.046 685.534,1621.212 686.134,1620.212L691.384,1624.162C690.351,1625.796 688.801,1627.129 686.734,1628.162C684.668,1629.196 682.351,1629.712 679.784,1629.712ZM679.684,1608.212C678.084,1608.212 676.718,1608.696 675.584,1609.662C674.451,1610.629 673.701,1611.896 673.334,1613.462L686.184,1613.462C685.818,1612.029 685.059,1610.796 683.909,1609.762C682.759,1608.729 681.351,1608.212 679.684,1608.212Z" style="fill-rule:nonzero;"/>
            <path d="M707.434,1629.712C705.068,1629.712 702.909,1629.104 700.959,1627.887C699.009,1626.671 697.459,1625.037 696.309,1622.987C695.159,1620.937 694.584,1618.662 694.584,1616.162C694.584,1614.296 694.918,1612.537 695.584,1610.887C696.251,1609.237 697.168,1607.787 698.334,1606.537C699.501,1605.287 700.859,1604.304 702.409,1603.587C703.959,1602.871 705.634,1602.512 707.434,1602.512C709.701,1602.512 711.468,1602.937 712.734,1603.787C714.001,1604.637 714.984,1605.762 715.684,1607.162L715.684,1603.062L722.384,1603.062L722.384,1629.062L715.834,1629.062L715.834,1624.812C715.134,1626.279 714.143,1627.462 712.859,1628.362C711.576,1629.262 709.768,1629.712 707.434,1629.712ZM708.534,1623.612C710.034,1623.612 711.326,1623.271 712.409,1622.587C713.493,1621.904 714.334,1620.996 714.934,1619.862C715.534,1618.729 715.834,1617.496 715.834,1616.162C715.834,1614.796 715.534,1613.546 714.934,1612.412C714.334,1611.279 713.493,1610.362 712.409,1609.662C711.326,1608.962 710.034,1608.612 708.534,1608.612C707.101,1608.612 705.843,1608.954 704.759,1609.637C703.676,1610.321 702.834,1611.229 702.234,1612.362C701.634,1613.496 701.334,1614.746 701.334,1616.112C701.334,1617.412 701.634,1618.637 702.234,1619.787C702.834,1620.937 703.676,1621.862 704.759,1622.562C705.843,1623.262 707.101,1623.612 708.534,1623.612Z" style="fill-rule:nonzero;"/>
            <path d="M736.234,1629.062C733.668,1629.062 731.701,1628.429 730.334,1627.162C728.968,1625.896 728.284,1623.846 728.284,1621.012L728.284,1608.812L724.634,1608.812L724.634,1603.062L728.284,1603.062L728.284,1597.812L735.034,1597.112L735.034,1603.062L740.534,1603.062L740.534,1608.812L735.034,1608.812L735.034,1620.662C735.034,1622.262 735.734,1623.062 737.134,1623.062L739.934,1623.062L739.934,1629.062L736.234,1629.062Z" style="fill-rule:nonzero;"/>
            <path d="M753.934,1629.712C751.568,1629.712 749.409,1629.104 747.459,1627.887C745.509,1626.671 743.959,1625.037 742.809,1622.987C741.659,1620.937 741.084,1618.662 741.084,1616.162C741.084,1614.296 741.418,1612.537 742.084,1610.887C742.751,1609.237 743.668,1607.787 744.834,1606.537C746.001,1605.287 747.359,1604.304 748.909,1603.587C750.459,1602.871 752.134,1602.512 753.934,1602.512C756.201,1602.512 757.968,1602.937 759.234,1603.787C760.501,1604.637 761.484,1605.762 762.184,1607.162L762.184,1603.062L768.884,1603.062L768.884,1629.062L762.334,1629.062L762.334,1624.812C761.634,1626.279 760.643,1627.462 759.359,1628.362C758.076,1629.262 756.268,1629.712 753.934,1629.712ZM755.034,1623.612C756.534,1623.612 757.826,1623.271 758.909,1622.587C759.993,1621.904 760.834,1620.996 761.434,1619.862C762.034,1618.729 762.334,1617.496 762.334,1616.162C762.334,1614.796 762.034,1613.546 761.434,1612.412C760.834,1611.279 759.993,1610.362 758.909,1609.662C757.826,1608.962 756.534,1608.612 755.034,1608.612C753.601,1608.612 752.343,1608.954 751.259,1609.637C750.176,1610.321 749.334,1611.229 748.734,1612.362C748.134,1613.496 747.834,1614.746 747.834,1616.112C747.834,1617.412 748.134,1618.637 748.734,1619.787C749.334,1620.937 750.176,1621.862 751.259,1622.562C752.343,1623.262 753.601,1623.612 755.034,1623.612Z" style="fill-rule:nonzero;"/>
            <path d="M785.284,1629.712C783.418,1629.712 781.676,1629.362 780.059,1628.662C778.443,1627.962 777.018,1626.987 775.784,1625.737C774.551,1624.487 773.593,1623.037 772.909,1621.387C772.226,1619.737 771.884,1617.962 771.884,1616.062C771.884,1613.529 772.476,1611.237 773.659,1609.187C774.843,1607.137 776.476,1605.496 778.559,1604.262C780.643,1603.029 783.001,1602.412 785.634,1602.412C788.001,1602.379 790.118,1602.796 791.984,1603.662C793.851,1604.529 795.334,1605.729 796.434,1607.262L791.234,1611.512C790.634,1610.612 789.859,1609.896 788.909,1609.362C787.959,1608.829 786.901,1608.562 785.734,1608.562C784.301,1608.562 783.051,1608.904 781.984,1609.587C780.918,1610.271 780.093,1611.179 779.509,1612.312C778.926,1613.446 778.634,1614.696 778.634,1616.062C778.634,1617.396 778.943,1618.637 779.559,1619.787C780.176,1620.937 781.026,1621.854 782.109,1622.537C783.193,1623.221 784.451,1623.562 785.884,1623.562C787.184,1623.562 788.284,1623.271 789.184,1622.687C790.084,1622.104 790.868,1621.362 791.534,1620.462L796.434,1624.712C795.201,1626.279 793.676,1627.504 791.859,1628.387C790.043,1629.271 787.851,1629.712 785.284,1629.712Z" style="fill-rule:nonzero;"/>
            <g transform="matrix(1,0,0,1,-1.886229,-9.275926)">
                <path d="M802.684,1629.712C801.384,1629.712 800.309,1629.279 799.459,1628.412C798.609,1627.546 798.184,1626.512 798.184,1625.312C798.184,1624.146 798.609,1623.129 799.459,1622.262C800.309,1621.396 801.384,1620.962 802.684,1620.962C803.984,1620.962 805.051,1621.396 805.884,1622.262C806.718,1623.129 807.134,1624.146 807.134,1625.312C807.134,1626.512 806.718,1627.546 805.884,1628.412C805.051,1629.279 803.984,1629.712 802.684,1629.712Z" style="fill-rule:nonzero;"/>
            </g>
            <path d="M821.634,1629.712C819.768,1629.712 818.026,1629.362 816.409,1628.662C814.793,1627.962 813.368,1626.987 812.134,1625.737C810.901,1624.487 809.943,1623.037 809.259,1621.387C808.576,1619.737 808.234,1617.962 808.234,1616.062C808.234,1613.529 808.826,1611.237 810.009,1609.187C811.193,1607.137 812.826,1605.496 814.909,1604.262C816.993,1603.029 819.351,1602.412 821.984,1602.412C824.351,1602.379 826.468,1602.796 828.334,1603.662C830.201,1604.529 831.684,1605.729 832.784,1607.262L827.584,1611.512C826.984,1610.612 826.209,1609.896 825.259,1609.362C824.309,1608.829 823.251,1608.562 822.084,1608.562C820.651,1608.562 819.401,1608.904 818.334,1609.587C817.268,1610.271 816.443,1611.179 815.859,1612.312C815.276,1613.446 814.984,1614.696 814.984,1616.062C814.984,1617.396 815.293,1618.637 815.909,1619.787C816.526,1620.937 817.376,1621.854 818.459,1622.537C819.543,1623.221 820.801,1623.562 822.234,1623.562C823.534,1623.562 824.634,1623.271 825.534,1622.687C826.434,1622.104 827.218,1621.362 827.884,1620.462L832.784,1624.712C831.551,1626.279 830.026,1627.504 828.209,1628.387C826.393,1629.271 824.201,1629.712 821.634,1629.712Z" style="fill-rule:nonzero;"/>
            <path d="M846.634,1629.712C843.968,1629.712 841.584,1629.096 839.484,1627.862C837.384,1626.629 835.743,1624.987 834.559,1622.937C833.376,1620.887 832.784,1618.612 832.784,1616.112C832.784,1613.612 833.376,1611.329 834.559,1609.262C835.743,1607.196 837.384,1605.546 839.484,1604.312C841.584,1603.079 843.968,1602.462 846.634,1602.462C849.334,1602.462 851.726,1603.079 853.809,1604.312C855.893,1605.546 857.526,1607.196 858.709,1609.262C859.893,1611.329 860.484,1613.612 860.484,1616.112C860.484,1618.612 859.893,1620.887 858.709,1622.937C857.526,1624.987 855.893,1626.629 853.809,1627.862C851.726,1629.096 849.334,1629.712 846.634,1629.712Z" style="fill-rule:nonzero;"/>
        </g>
        <g transform="matrix(0.533744,0,0,0.182558,1616.28756,1662.31918)">
            <path d="M338.769,109.929C342,106.932 363.501,94.172 376.567,107.239C389.634,120.306 372.758,142.511 372.212,143.304C371.838,143.848 318.67,202.316 307.758,214.315C306.51,215.688 306.046,217.813 306.465,220.268C310.311,242.791 329.905,357.476 330.596,359.488C330.41,362.018 330.035,363.591 329.217,364.971C327.584,367.723 306.685,387.793 305.7,387.294C305.61,387.249 305.7,387.294 304.818,386.392C304.804,386.244 305.396,386.245 304.366,383.55C303.97,382.498 259.475,258.334 258.978,257.314C257.619,254.073 256.652,255.332 255.048,257.15C254.351,257.939 194.475,314.422 193.431,315.442C193.161,315.807 192.89,316.173 192.62,316.539C192.643,320.595 199.825,370.908 199.903,371.468C200.412,375.73 201.219,376.158 198.214,379.216C194.74,382.752 194.815,382.733 191.274,386.281C187.842,389.72 187.213,385.407 186.567,384.463C186.122,383.942 155.14,331.316 154.778,330.078C154.338,328.569 92.89,291.531 92.858,289.508C92.858,289.478 92.207,289.015 102.333,279.321C104.246,277.49 109.869,279.24 112.51,279.435C115.288,280.494 166.113,290.206 166.434,290.219L167.476,289.471C167.511,289.425 217.969,234.203 225.988,224.269C226.805,223.257 226.763,222.154 225.844,221.746C211.65,215.439 95.013,172.622 93.415,172.575C93.927,169.62 94.759,170.011 109.34,155.341C115.806,148.835 115.138,146.731 120.542,147.112C122.504,147.379 251.67,172.729 257.483,173.679C268.298,176.716 268.933,175.762 274.352,170.351C277.791,166.917 322.493,125.028 338.769,109.929Z" style="fill:white;fill-opacity:1;"/>
        </g>
    </g>
</svg>
