<?xml version="1.0" encoding="UTF-8" standalone="no"?>
<!DOCTYPE svg PUBLIC "-//W3C//DTD SVG 1.1//EN" "http://www.w3.org/Graphics/SVG/1.1/DTD/svg11.dtd">
<svg width="100%" height="100%" viewBox="0 0 338 174" version="1.1" xmlns="http://www.w3.org/2000/svg" xmlns:xlink="http://www.w3.org/1999/xlink" xml:space="preserve" xmlns:serif="http://www.serif.com/" style="fill-rule:evenodd;clip-rule:evenodd;stroke-linejoin:round;stroke-miterlimit:2;">
    <g id="Artboard3" transform="matrix(1,0,0,1,-834.456288,87)">
        <rect x="834.456" y="-87" width="337.272" height="173.105" style="fill:none;"/>
        <clipPath id="_clip1">
            <rect x="834.456" y="-87" width="337.272" height="173.105"/>
        </clipPath>
        <g clip-path="url(#_clip1)">
            <g id="Artboard1" transform="matrix(0.590234,0,0,1.725664,69.772645,-2926.008815)">
                <g transform="matrix(2.43768,0,0,0.833767,1294.275843,1629.32737)">
                    <path d="M105.183,119.963C94.19,131.859 78.458,139.312 61,139.312C27.799,139.312 0.844,112.357 0.844,79.156C0.844,45.955 27.799,19 61,19C78.681,19 94.591,26.645 105.602,38.807C98.068,49.466 90.847,59.662 88.183,63.423C87.489,64.403 86.606,64.97 85.712,65.012C77.898,65.383 39.823,67.191 39.51,67.249C39.053,67.333 25.724,69.151 25.724,78.064C25.724,86.977 37.408,89.958 39.533,90.038C50.234,90.44 79.767,91.399 82.111,91.401C85.805,91.404 86.347,91.295 88.999,96.019C89.736,97.044 97.136,108.017 105.183,119.963ZM118.925,62.883C119.434,64.696 119.86,66.543 120.199,68.421C119.048,68.392 118.363,68.377 118.299,68.381C117.132,68.454 116.373,68.553 117.015,66.984C117.043,66.902 117.752,65.383 118.925,62.883ZM120.313,89.238C119.909,91.631 119.363,93.976 118.684,96.264C117.464,93.503 116.581,91.446 116.185,90.416C116.01,89.963 116.372,89.573 116.996,89.506C117.72,89.429 118.862,89.338 120.313,89.238Z" style="fill:rgb(28,117,77);fill-opacity:1;"/>
                </g>
                <g transform="matrix(2.43768,0,0,0.833767,1572.415101,1629.32737)">
                    <path d="M15.908,39.355C26.934,26.875 43.055,19 61,19C94.201,19 121.156,45.955 121.156,79.156C121.156,112.357 94.201,139.312 61,139.312C41.752,139.312 24.604,130.253 13.59,116.169C2.18,100.142 1.137,91.719 2.085,90.416C2.37,90.024 2.272,89.573 2.896,89.506C9.019,88.853 45.063,87.229 45.09,87.225L45.701,87.325C45.806,87.439 59.828,108.086 60.415,109.395C61.249,110.362 62.57,112.877 63.847,112.904C70.607,113.052 70.543,112.672 70.553,112.662C71.232,111.961 62.906,78.371 63.271,77.706C63.57,77.16 70.952,48.645 70.978,48.315C71.079,47.773 72.336,46.087 69.992,46.089C67.574,46.092 67.607,46.111 65.216,46.132C63.148,46.15 63.277,46.571 61.997,48.199C61.833,48.416 47.122,68.026 45.746,69.417L45.096,69.515C44.392,69.506 4.706,68.349 4.199,68.381C3.032,68.454 3.845,68.401 2.915,66.984C1.381,64.647 7.444,47.712 15.908,39.355Z" style="fill:rgb(28,117,77);fill-opacity:1;"/>
                </g>
            </g>
        </g>
    </g>
</svg>
