<?xml version="1.0" encoding="UTF-8" standalone="no"?>
<!DOCTYPE svg PUBLIC "-//W3C//DTD SVG 1.1//EN" "http://www.w3.org/Graphics/SVG/1.1/DTD/svg11.dtd">
<svg width="100%" height="100%" viewBox="0 0 1150 174" version="1.1" xmlns="http://www.w3.org/2000/svg" xmlns:xlink="http://www.w3.org/1999/xlink" xml:space="preserve" xmlns:serif="http://www.serif.com/" style="fill-rule:evenodd;clip-rule:evenodd;stroke-linejoin:round;stroke-miterlimit:2;">
    <g id="Artboard1" transform="matrix(0.590234,0,0,1.725664,41.316357,-2839.008815)">
        <rect x="-70" y="1645.169" width="1947.451" height="100.598" style="fill:none;"/>
        <g transform="matrix(8.982177,0,0,3.072199,-5851.571085,-3261.380317)">
            <path d="M654.584,1629.712C650.218,1629.712 646.618,1628.196 643.784,1625.162L648.334,1621.012C650.234,1623.146 652.268,1624.212 654.434,1624.212C655.601,1624.212 656.493,1623.954 657.109,1623.437C657.726,1622.921 658.034,1622.279 658.034,1621.512C658.034,1621.046 657.926,1620.646 657.709,1620.312C657.493,1619.979 657.043,1619.662 656.359,1619.362C655.676,1619.062 654.651,1618.762 653.284,1618.462C650.951,1617.896 649.218,1617.196 648.084,1616.362C646.951,1615.529 646.201,1614.596 645.834,1613.562C645.468,1612.529 645.284,1611.462 645.284,1610.362C645.284,1608.096 646.143,1606.204 647.859,1604.687C649.576,1603.171 651.951,1602.412 654.984,1602.412C657.084,1602.412 658.884,1602.729 660.384,1603.362C661.884,1603.996 663.301,1605.179 664.634,1606.912L659.734,1610.662C659.101,1609.662 658.393,1608.946 657.609,1608.512C656.826,1608.079 656.001,1607.862 655.134,1607.862C654.201,1607.862 653.426,1608.046 652.809,1608.412C652.193,1608.779 651.884,1609.362 651.884,1610.162C651.884,1610.596 652.084,1611.021 652.484,1611.437C652.884,1611.854 653.851,1612.262 655.384,1612.662C657.918,1613.296 659.851,1614.037 661.184,1614.887C662.518,1615.737 663.434,1616.696 663.934,1617.762C664.434,1618.829 664.684,1620.012 664.684,1621.312C664.684,1622.912 664.243,1624.346 663.359,1625.612C662.476,1626.879 661.276,1627.879 659.759,1628.612C658.243,1629.346 656.518,1629.712 654.584,1629.712Z" style="fill-rule:nonzero;"/>
            <path d="M679.784,1629.712C677.118,1629.712 674.768,1629.096 672.734,1627.862C670.701,1626.629 669.126,1624.987 668.009,1622.937C666.893,1620.887 666.334,1618.612 666.334,1616.112C666.334,1613.612 666.918,1611.321 668.084,1609.237C669.251,1607.154 670.843,1605.496 672.859,1604.262C674.876,1603.029 677.184,1602.412 679.784,1602.412C682.384,1602.412 684.676,1603.029 686.659,1604.262C688.643,1605.496 690.193,1607.154 691.309,1609.237C692.426,1611.321 692.984,1613.612 692.984,1616.112C692.984,1616.479 692.968,1616.862 692.934,1617.262C692.901,1617.662 692.851,1618.079 692.784,1618.512L673.334,1618.512C673.701,1620.046 674.443,1621.296 675.559,1622.262C676.676,1623.229 678.084,1623.712 679.784,1623.712C681.251,1623.712 682.526,1623.379 683.609,1622.712C684.693,1622.046 685.534,1621.212 686.134,1620.212L691.384,1624.162C690.351,1625.796 688.801,1627.129 686.734,1628.162C684.668,1629.196 682.351,1629.712 679.784,1629.712ZM679.684,1608.212C678.084,1608.212 676.718,1608.696 675.584,1609.662C674.451,1610.629 673.701,1611.896 673.334,1613.462L686.184,1613.462C685.818,1612.029 685.059,1610.796 683.909,1609.762C682.759,1608.729 681.351,1608.212 679.684,1608.212Z" style="fill-rule:nonzero;"/>
            <path d="M707.434,1629.712C705.068,1629.712 702.909,1629.104 700.959,1627.887C699.009,1626.671 697.459,1625.037 696.309,1622.987C695.159,1620.937 694.584,1618.662 694.584,1616.162C694.584,1614.296 694.918,1612.537 695.584,1610.887C696.251,1609.237 697.168,1607.787 698.334,1606.537C699.501,1605.287 700.859,1604.304 702.409,1603.587C703.959,1602.871 705.634,1602.512 707.434,1602.512C709.701,1602.512 711.468,1602.937 712.734,1603.787C714.001,1604.637 714.984,1605.762 715.684,1607.162L715.684,1603.062L722.384,1603.062L722.384,1629.062L715.834,1629.062L715.834,1624.812C715.134,1626.279 714.143,1627.462 712.859,1628.362C711.576,1629.262 709.768,1629.712 707.434,1629.712ZM708.534,1623.612C710.034,1623.612 711.326,1623.271 712.409,1622.587C713.493,1621.904 714.334,1620.996 714.934,1619.862C715.534,1618.729 715.834,1617.496 715.834,1616.162C715.834,1614.796 715.534,1613.546 714.934,1612.412C714.334,1611.279 713.493,1610.362 712.409,1609.662C711.326,1608.962 710.034,1608.612 708.534,1608.612C707.101,1608.612 705.843,1608.954 704.759,1609.637C703.676,1610.321 702.834,1611.229 702.234,1612.362C701.634,1613.496 701.334,1614.746 701.334,1616.112C701.334,1617.412 701.634,1618.637 702.234,1619.787C702.834,1620.937 703.676,1621.862 704.759,1622.562C705.843,1623.262 707.101,1623.612 708.534,1623.612Z" style="fill-rule:nonzero;"/>
            <path d="M736.234,1629.062C733.668,1629.062 731.701,1628.429 730.334,1627.162C728.968,1625.896 728.284,1623.846 728.284,1621.012L728.284,1608.812L724.634,1608.812L724.634,1603.062L728.284,1603.062L728.284,1597.812L735.034,1597.112L735.034,1603.062L740.534,1603.062L740.534,1608.812L735.034,1608.812L735.034,1620.662C735.034,1622.262 735.734,1623.062 737.134,1623.062L739.934,1623.062L739.934,1629.062L736.234,1629.062Z" style="fill-rule:nonzero;"/>
            <path d="M753.934,1629.712C751.568,1629.712 749.409,1629.104 747.459,1627.887C745.509,1626.671 743.959,1625.037 742.809,1622.987C741.659,1620.937 741.084,1618.662 741.084,1616.162C741.084,1614.296 741.418,1612.537 742.084,1610.887C742.751,1609.237 743.668,1607.787 744.834,1606.537C746.001,1605.287 747.359,1604.304 748.909,1603.587C750.459,1602.871 752.134,1602.512 753.934,1602.512C756.201,1602.512 757.968,1602.937 759.234,1603.787C760.501,1604.637 761.484,1605.762 762.184,1607.162L762.184,1603.062L768.884,1603.062L768.884,1629.062L762.334,1629.062L762.334,1624.812C761.634,1626.279 760.643,1627.462 759.359,1628.362C758.076,1629.262 756.268,1629.712 753.934,1629.712ZM755.034,1623.612C756.534,1623.612 757.826,1623.271 758.909,1622.587C759.993,1621.904 760.834,1620.996 761.434,1619.862C762.034,1618.729 762.334,1617.496 762.334,1616.162C762.334,1614.796 762.034,1613.546 761.434,1612.412C760.834,1611.279 759.993,1610.362 758.909,1609.662C757.826,1608.962 756.534,1608.612 755.034,1608.612C753.601,1608.612 752.343,1608.954 751.259,1609.637C750.176,1610.321 749.334,1611.229 748.734,1612.362C748.134,1613.496 747.834,1614.746 747.834,1616.112C747.834,1617.412 748.134,1618.637 748.734,1619.787C749.334,1620.937 750.176,1621.862 751.259,1622.562C752.343,1623.262 753.601,1623.612 755.034,1623.612Z" style="fill-rule:nonzero;"/>
            <path d="M785.284,1629.712C783.418,1629.712 781.676,1629.362 780.059,1628.662C778.443,1627.962 777.018,1626.987 775.784,1625.737C774.551,1624.487 773.593,1623.037 772.909,1621.387C772.226,1619.737 771.884,1617.962 771.884,1616.062C771.884,1613.529 772.476,1611.237 773.659,1609.187C774.843,1607.137 776.476,1605.496 778.559,1604.262C780.643,1603.029 783.001,1602.412 785.634,1602.412C788.001,1602.379 790.118,1602.796 791.984,1603.662C793.851,1604.529 795.334,1605.729 796.434,1607.262L791.234,1611.512C790.634,1610.612 789.859,1609.896 788.909,1609.362C787.959,1608.829 786.901,1608.562 785.734,1608.562C784.301,1608.562 783.051,1608.904 781.984,1609.587C780.918,1610.271 780.093,1611.179 779.509,1612.312C778.926,1613.446 778.634,1614.696 778.634,1616.062C778.634,1617.396 778.943,1618.637 779.559,1619.787C780.176,1620.937 781.026,1621.854 782.109,1622.537C783.193,1623.221 784.451,1623.562 785.884,1623.562C787.184,1623.562 788.284,1623.271 789.184,1622.687C790.084,1622.104 790.868,1621.362 791.534,1620.462L796.434,1624.712C795.201,1626.279 793.676,1627.504 791.859,1628.387C790.043,1629.271 787.851,1629.712 785.284,1629.712Z" style="fill-rule:nonzero;"/>
            <g transform="matrix(1,0,0,1,-1.886229,-9.275926)">
                <path d="M802.684,1629.712C801.384,1629.712 800.309,1629.279 799.459,1628.412C798.609,1627.546 798.184,1626.512 798.184,1625.312C798.184,1624.146 798.609,1623.129 799.459,1622.262C800.309,1621.396 801.384,1620.962 802.684,1620.962C803.984,1620.962 805.051,1621.396 805.884,1622.262C806.718,1623.129 807.134,1624.146 807.134,1625.312C807.134,1626.512 806.718,1627.546 805.884,1628.412C805.051,1629.279 803.984,1629.712 802.684,1629.712Z" style="fill-rule:nonzero;"/>
            </g>
        </g>
        <g transform="matrix(2.039783,0,0,0.697673,1387.883371,1648.28686)">
            <path d="M105.183,119.963C94.19,131.859 78.458,139.312 61,139.312C27.799,139.312 0.844,112.357 0.844,79.156C0.844,45.955 27.799,19 61,19C78.681,19 94.591,26.645 105.602,38.807C98.068,49.466 90.847,59.662 88.183,63.423C87.489,64.403 86.606,64.97 85.712,65.012C77.898,65.383 39.823,67.191 39.51,67.249C39.053,67.333 25.724,69.151 25.724,78.064C25.724,86.977 37.408,89.958 39.533,90.038C50.234,90.44 79.767,91.399 82.111,91.401C85.805,91.404 86.347,91.295 88.999,96.019C89.736,97.044 97.136,108.017 105.183,119.963ZM118.925,62.883C119.434,64.696 119.86,66.543 120.199,68.421C119.048,68.392 118.363,68.377 118.299,68.381C117.132,68.454 116.373,68.553 117.015,66.984C117.043,66.902 117.752,65.383 118.925,62.883ZM120.313,89.238C119.909,91.631 119.363,93.976 118.684,96.264C117.464,93.503 116.581,91.446 116.185,90.416C116.01,89.963 116.372,89.573 116.996,89.506C117.72,89.429 118.862,89.338 120.313,89.238Z" style="fill-opacity:1;"/>
        </g>
        <g transform="matrix(2.039783,0,0,0.697673,1620.622648,1648.28686)">
            <path d="M15.908,39.355C26.934,26.875 43.055,19 61,19C94.201,19 121.156,45.955 121.156,79.156C121.156,112.357 94.201,139.312 61,139.312C41.752,139.312 24.604,130.253 13.59,116.169C2.18,100.142 1.137,91.719 2.085,90.416C2.37,90.024 2.272,89.573 2.896,89.506C9.019,88.853 45.063,87.229 45.09,87.225L45.701,87.325C45.806,87.439 59.828,108.086 60.415,109.395C61.249,110.362 62.57,112.877 63.847,112.904C70.607,113.052 70.543,112.672 70.553,112.662C71.232,111.961 62.906,78.371 63.271,77.706C63.57,77.16 70.952,48.645 70.978,48.315C71.079,47.773 72.336,46.087 69.992,46.089C67.574,46.092 67.607,46.111 65.216,46.132C63.148,46.15 63.277,46.571 61.997,48.199C61.833,48.416 47.122,68.026 45.746,69.417L45.096,69.515C44.392,69.506 4.706,68.349 4.199,68.381C3.032,68.454 3.845,68.401 2.915,66.984C1.381,64.647 7.444,47.712 15.908,39.355Z" style="fill-opacity:1;"/>
        </g>
    </g>
</svg>
