<?xml version="1.0" encoding="UTF-8" standalone="no"?><!DOCTYPE svg PUBLIC "-//W3C//DTD SVG 1.1//EN" "http://www.w3.org/Graphics/SVG/1.1/DTD/svg11.dtd"><svg width="100%" height="100%" viewBox="0 0 36 35" version="1.1" xmlns="http://www.w3.org/2000/svg" xmlns:xlink="http://www.w3.org/1999/xlink" xml:space="preserve" xmlns:serif="http://www.serif.com/" style="fill-rule:evenodd;clip-rule:evenodd;stroke-linejoin:round;stroke-miterlimit:2;"><rect id="Artboard1" x="0" y="0" width="35.388" height="34.943" style="fill:none;"/><g id="toppng.com-file-svg-airplane-icon-transparent-background-980x980.png"></g><path d="M17.766,34.8c-3.393,0 -6.426,-0.785 -9.098,-2.354c-2.672,-1.569 -4.761,-3.658 -6.266,-6.266c-1.506,-2.608 -2.258,-5.503 -2.258,-8.684c0,-3.181 0.753,-6.086 2.258,-8.716c1.506,-2.63 3.594,-4.729 6.266,-6.298c2.672,-1.569 5.705,-2.354 9.098,-2.354c3.435,0 6.479,0.785 9.129,2.354c2.651,1.569 4.729,3.669 6.235,6.298c1.506,2.63 2.258,5.535 2.258,8.716c0,3.181 -0.753,6.076 -2.258,8.684c-1.506,2.608 -3.584,4.697 -6.235,6.266c-2.651,1.569 -5.694,2.354 -9.129,2.354Zm6.241,-26.106c-1.231,1.142 -4.61,4.309 -4.871,4.568c-0.41,0.409 -0.458,0.481 -1.275,0.252c-0.439,-0.072 -10.205,-1.988 -10.354,-2.009c-0.409,-0.029 -0.358,0.13 -0.847,0.622c-1.102,1.109 -1.165,1.08 -1.204,1.303c0.121,0.004 8.94,3.241 10.013,3.718c0.07,0.031 0.073,0.114 0.011,0.191c-0.606,0.751 -4.421,4.926 -4.424,4.93l-0.079,0.057c-0.024,-0.001 -3.867,-0.735 -4.077,-0.815c-0.2,-0.015 -0.625,-0.147 -0.769,-0.009c-0.766,0.733 -0.716,0.768 -0.716,0.77c0.002,0.153 4.648,2.953 4.682,3.067c0.027,0.094 2.37,4.073 2.403,4.112c0.049,0.071 0.096,0.398 0.356,0.137c0.268,-0.268 0.262,-0.267 0.525,-0.534c0.227,-0.231 0.166,-0.264 0.128,-0.586c-0.006,-0.042 -0.549,-3.846 -0.551,-4.153l0.061,-0.083c0.079,-0.077 4.606,-4.348 4.659,-4.407c0.121,-0.137 0.194,-0.233 0.297,0.012c0.038,0.077 3.402,9.465 3.432,9.544c0.078,0.204 0.033,0.204 0.034,0.215c0.067,0.068 0.06,0.065 0.067,0.068c0.075,0.038 1.655,-1.48 1.778,-1.688c0.062,-0.104 0.09,-0.223 0.104,-0.415c-0.052,-0.152 -1.534,-8.823 -1.824,-10.526c-0.032,-0.186 0.003,-0.346 0.098,-0.45c0.825,-0.907 4.845,-5.328 4.873,-5.369c0.041,-0.06 1.317,-1.739 0.329,-2.727c-0.988,-0.988 -2.614,-0.023 -2.858,0.203Z"/></svg>